<mxfile host="app.diagrams.net" modified="2023-03-26T12:19:27.962Z" agent="Mozilla/5.0 (Windows NT 10.0; Win64; x64) AppleWebKit/537.36 (KHTML, like Gecko) Chrome/111.0.0.0 Safari/537.36" version="21.1.1" etag="veBX45Wk2rB0eSR-xRPe" type="github">
  <diagram name="페이지-1" id="xnk49SnC0FH1W80XQzJZ">
    <mxGraphModel>
      <root>
        <mxCell id="0" />
        <mxCell id="1" parent="0" />
      </root>
    </mxGraphModel>
  </diagram>
</mxfile>
